<?xml version="1.0" encoding="utf-8"?>
<!-- Generator: Adobe Illustrator 21.0.0, SVG Export Plug-In . SVG Version: 6.00 Build 0)  -->
<svg version="1.1" id="Layer_1" xmlns:sketch="http://www.bohemiancoding.com/sketch/ns"
	 xmlns="http://www.w3.org/2000/svg" xmlns:xlink="http://www.w3.org/1999/xlink" x="0px" y="0px" viewBox="0 0 1476 506"
	 style="enable-background:new 0 0 1476 506;" xml:space="preserve">
<style type="text/css">
	.st0{fill:#FFFFFF;}
	.st1{fill:none;stroke:#FFFFFF;stroke-width:24;}
</style>
<title>react-logo</title>
<desc>Created with Sketch.</desc>
<g id="Page-1" sketch:type="MSPage">
	<g id="logo-_x28_1_x29_" transform="translate(12.000000, 17.000000)" sketch:type="MSLayerGroup">
		<circle id="Oval" sketch:type="MSShapeGroup" class="st0" cx="284.6" cy="235.8" r="40.6">
		</circle>
		<path id="Shape" sketch:type="MSShapeGroup" class="st1" d="M284.6,153.4c54.5,0,105.1,7.8,143.2,20.9
			c46,15.8,74.2,39.8,74.2,61.5c0,22.6-30,48.1-79.3,64.5c-37.3,12.4-86.4,18.8-138.1,18.8c-53,0-103.2-6.1-140.9-19
			c-47.7-16.3-76.5-42.1-76.5-64.3c0-21.5,27-45.3,72.3-61.1C177.7,161.3,229.6,153.4,284.6,153.4L284.6,153.4z"/>
		<path id="Shape_1_" sketch:type="MSShapeGroup" class="st1" d="M212.8,194.8c27.2-47.2,59.3-87.1,89.7-113.6
			c36.7-31.9,71.6-44.4,90.4-33.6c19.6,11.3,26.7,50,16.2,100.9c-7.9,38.5-26.9,84.3-52.7,129.1c-26.5,45.9-56.8,86.4-86.8,112.6
			c-38,33.2-74.7,45.2-94,34.1c-18.7-10.8-25.8-46-16.8-93.2C166.3,291.4,185.3,242.5,212.8,194.8L212.8,194.8z"/>
		<path id="Shape_2_" sketch:type="MSShapeGroup" class="st1" d="M212.8,277.8c-27.3-47.1-45.9-94.8-53.6-134.4
			c-9.3-47.7-2.7-84.2,16.1-95.1c19.6-11.3,56.6,1.8,95.5,36.3c29.4,26.1,59.6,65.4,85.5,110.1c26.6,45.9,46.5,92.4,54.2,131.5
			c9.8,49.5,1.9,87.3-17.3,98.4c-18.6,10.8-52.8-0.6-89.1-31.9C273.3,366.2,240.4,325.4,212.8,277.8L212.8,277.8z"/>
	</g>
	<path id="React" sketch:type="MSShapeGroup" class="st0" d="M793.1,330l-55.3-83.6c28-2.5,53.2-22.7,53.2-59.6
		c0-37.8-26.7-61.8-64.2-61.8h-82.4v205h25.5v-81.4h40.9L763,330H793.1z M723.7,226.1h-53.8v-78.4h53.8c24.3,0,40.9,16,40.9,39
		S747.9,226.1,723.7,226.1L723.7,226.1z M888,333.6c24.3,0,44.2-8,59-22.7L936,295.9c-11.7,12-28.9,18.7-45.8,18.7
		c-32,0-51.6-23.4-53.5-51.3h120.1v-5.8c0-44.6-26.4-79.6-71.3-79.6c-42.4,0-73.1,34.7-73.1,77.7C812.5,302,844.1,333.6,888,333.6
		L888,333.6z M934.1,246.4h-97.4c1.2-22.7,16.9-49.5,48.6-49.5C919.1,196.9,933.8,224.3,934.1,246.4L934.1,246.4z M1109.9,330v-102
		c0-36-26.1-50.1-57.5-50.1c-24.3,0-43.3,8-59.3,24.6l10.8,16c13.2-14.1,27.7-20.6,45.5-20.6c21.5,0,37.5,11.4,37.5,31.3v26.7
		c-12-13.8-28.9-20.3-49.2-20.3c-25.2,0-51.9,15.7-51.9,48.9c0,32.3,26.7,49.2,51.9,49.2c20,0,36.9-7.1,49.2-20.6V330H1109.9z
		 M1046,317.1c-21.5,0-36.6-13.5-36.6-32.3c0-19.1,15.1-32.6,36.6-32.6c16.3,0,32,6.1,40.9,18.4v28
		C1077.9,310.9,1062.3,317.1,1046,317.1L1046,317.1z M1221.4,333.6c27,0,43-11.1,54.4-25.8l-15.4-14.1
		c-9.8,13.2-22.4,19.4-37.8,19.4c-31.6,0-51.3-24.6-51.3-57.5s19.7-57.2,51.3-57.2c15.4,0,28,5.8,37.8,19.4l15.4-14.1
		c-11.4-14.7-27.3-25.8-54.4-25.8c-44.2,0-74.1,33.8-74.1,77.7C1147.4,299.8,1177.2,333.6,1221.4,333.6L1221.4,333.6z M1345.6,333.6
		c13.5,0,21.8-4,27.7-9.5l-6.8-17.2c-3.1,3.4-9.2,6.1-15.7,6.1c-10.1,0-15.1-8-15.1-19.1v-92.2h30.1v-20.3h-30.1V141h-23v40.6h-24.6
		v20.3h24.6v97.1C1312.7,321,1323.8,333.6,1345.6,333.6L1345.6,333.6z"/>
</g>
</svg>
